<?xml version="1.0" encoding="UTF-8"?>
<svg width="434px" height="264px" viewBox="0 0 434 264" version="1.1" xmlns="http://www.w3.org/2000/svg" xmlns:xlink="http://www.w3.org/1999/xlink">
    <title>Group 50</title>
    <defs>
        <polygon id="path-1" points="5.67910769e-14 0 66.8977622 0 66.8977622 127.764969 5.67910769e-14 127.764969"></polygon>
        <polygon id="path-3" points="0 0 208.011468 0 208.011468 199.894552 0 199.894552"></polygon>
        <polygon id="path-5" points="0 0 164.046702 0 164.046702 90.8273572 0 90.8273572"></polygon>
    </defs>
    <g id="404-error-page" stroke="none" stroke-width="1" fill="none" fill-rule="evenodd">
        <g id="DR---404-error" transform="translate(-539.000000, -197.000000)">
            <g id="Group-50" transform="translate(539.000000, 197.000000)">
                <path d="M233.469623,130.984286 C232.305168,130.682473 231.0711,130.823655 230.001463,131.374218 C204.693598,145.14501 173.476322,134.266293 146.170808,139.039598 C121.529786,143.346857 98.5532297,156.382685 74.2900366,162.7222 C51.9613601,168.556533 24.0156481,173.864314 8.57840213,191.456151 C-7.01703301,209.228067 0.163650803,226.433814 17.9802154,237.232336 C63.0576458,264.553263 83.0994207,254.430159 134.020968,262.919342 C170.854799,269.05981 232.047841,248.032058 256.759196,225.15381 C276.508357,206.869747 297.654576,208.195612 302.686863,180.29795 C309.39634,143.101229 260.084769,137.879886 233.469623,130.984286" id="Fill-1" fill="#624E42"></path>
                <path d="M350.538941,204.232016 C334.815563,208.446114 318.653623,199.112719 314.440606,183.385304 C310.22759,167.657889 319.55859,151.49204 335.281969,147.277702 C351.005347,143.063604 367.167047,152.397 371.380304,168.124415 C375.59332,183.85183 366.26232,200.017918 350.538941,204.232016 M329.892975,127.160912 C303.062029,134.352083 287.139653,161.937847 294.328738,188.775681 C301.518304,215.613515 329.096988,231.540218 355.927935,224.349047 C382.758641,217.157876 398.681497,189.571872 391.491931,162.734038 C384.302606,135.896444 356.723922,119.969741 329.892975,127.160912" id="Fill-3" fill="#73B73D"></path>
                <path d="M377.724385,163.521129 C378.190311,165.260696 378.490366,167.004825 378.635593,168.736468 C378.933248,172.315727 378.5667,175.846003 377.619486,179.179153 C374.878901,188.83309 367.278619,196.841581 356.883743,199.62753 C346.488627,202.413718 335.903395,199.279136 328.704228,192.289174 C326.217849,189.87635 324.135706,187.002523 322.604463,183.75389 C321.864647,182.181437 321.252534,180.520865 320.786608,178.781538 C316.573351,163.053883 325.903151,146.887554 341.62677,142.673216 C357.350389,138.459118 373.511368,147.793474 377.724385,163.521129 M300.6745,184.171915 C301.135625,185.892754 301.679806,187.567492 302.302961,189.19493 C303.519025,192.374652 305.034424,195.370693 306.808591,198.157602 C318.279586,216.210682 340.522087,225.574331 362.272737,219.744801 C384.023386,213.91527 398.605115,194.681829 399.515122,173.310725 C399.658429,170.00975 399.473355,166.657152 398.937096,163.295429 C398.663205,161.57411 398.297378,159.851591 397.836493,158.130752 C390.646687,131.291717 363.068003,115.365014 336.237777,122.556185 C309.40755,129.747116 293.484935,157.33288 300.6745,184.171915" id="Fill-5" fill="#84BE5F"></path>
                <path d="M302.302889,189.195026 L322.604391,183.753746 C324.135874,187.002379 326.217777,189.876206 328.704156,192.28927 L306.808759,198.157698 C305.034592,195.370549 303.519193,192.374748 302.302889,189.195026" id="Fill-7" fill="#73B73D"></path>
                <path d="M378.635593,168.736492 L398.937096,163.295453 C399.473355,166.657176 399.658429,170.009774 399.515122,173.310749 L377.619486,179.179177 C378.5667,175.845787 378.933248,172.315751 378.635593,168.736492" id="Fill-9" fill="#73B73D"></path>
                <g id="Group-13" transform="translate(367.102238, 13.626789)">
                    <mask id="mask-2" fill="white">
                        <use xlink:href="#path-1"></use>
                    </mask>
                    <g id="Clip-12"></g>
                    <path d="M62.2579228,56.1611599 C71.6388523,91.1801216 66.3453964,123.025604 50.4345431,127.290124 C34.5239298,131.554405 14.0207899,106.622771 4.63986048,71.6038094 C-4.74106897,36.5848478 0.552386921,4.73936547 16.4632402,0.474845031 C32.3740935,-3.78943531 52.8769934,21.1421983 62.2579228,56.1611599" id="Fill-11" fill="#73B73D" mask="url(#mask-2)"></path>
                </g>
                <g id="Group-16" transform="translate(219.711702, 0.000000)">
                    <mask id="mask-4" fill="white">
                        <use xlink:href="#path-3"></use>
                    </mask>
                    <g id="Clip-15"></g>
                    <path d="M192.72433,159.676818 L42.6654657,199.894552 L12.7031419,88.048433 L0,40.6227206 L150.058865,0.404986579 C154.26684,-0.723511033 158.894894,0.539445869 163.652571,3.78087518 C166.547504,5.75694653 169.492847,8.46293974 172.416586,11.8076146 C183.453821,24.4395846 194.222206,46.1931769 201.152284,72.0645849 C212.933656,116.047179 209.162561,155.270875 192.72433,159.676818" id="Fill-14" fill="#84BE5F" mask="url(#mask-4)"></path>
                </g>
                <g id="Group-19" transform="translate(219.711774, 0.000000)">
                    <mask id="mask-6" fill="white">
                        <use xlink:href="#path-5"></use>
                    </mask>
                    <g id="Clip-18"></g>
                    <path d="M163.652571,3.78085117 C168.558835,25.4261557 128.190353,106.785551 12.7031419,88.048409 L0,40.6226966 L150.058865,0.404962568 C154.26684,-0.723535043 158.894894,0.539421858 163.652571,3.78085117" id="Fill-17" fill="#A2CD8D" mask="url(#mask-6)"></path>
                </g>
                <path d="M270.806154,112.283327 C282.588006,156.264961 278.81475,195.490338 262.3782,199.89556 C245.94189,204.300783 223.066393,172.217836 211.284541,128.236202 C199.502689,84.2545681 203.275944,45.0291916 219.712494,40.6239692 C236.148805,36.2187467 259.024302,68.3016937 270.806154,112.283327" id="Fill-20" fill="#73B73D"></path>
                <path d="M220.685874,44.2584278 C223.940874,43.3861231 227.504571,44.2156889 231.204613,46.490452 C244.228934,54.5006241 258.927084,80.4306179 267.683898,113.119832 C276.442153,145.806646 276.672835,175.614349 269.397334,189.06508 C267.330793,192.887566 264.659341,195.388269 261.404341,196.260573 C246.691308,200.203832 225.650229,169.373037 214.406076,127.399169 C203.162163,85.4255404 205.973081,48.2016866 220.685874,44.2584278" id="Fill-22" fill="#A2CD8D"></path>
                <path d="M231.204517,46.490548 C244.228838,54.5007201 258.927228,80.430714 267.684042,113.119928 C276.442057,145.806742 276.672739,175.614205 269.397478,189.064936 C256.371237,181.055485 241.673087,155.125491 232.916753,122.438197 C224.159938,89.7487428 223.929256,59.9412791 231.204517,46.490548" id="Fill-24" fill="#624E42"></path>
                <polygon id="Fill-26" fill="#84BE5F" points="327.130018 119.140439 335.321288 116.945151 337.516012 125.138524 329.324982 127.333812"></polygon>
                <polygon id="Fill-28" fill="#84BE5F" points="343.512558 114.749623 351.703828 112.554335 353.898793 120.747708 345.707523 122.942996"></polygon>
                <polygon id="Fill-30" fill="#84BE5F" points="337.516132 125.138404 345.707403 122.943116 347.902127 131.136249 339.711097 133.331777"></polygon>
                <path d="M267.913141,147.697383 C262.772353,140.063217 251.244708,138.885498 243.451671,133.953003 C239.036297,141.676969 230.767973,147.10072 221.906979,147.989112 C215.780089,148.603063 208.984677,147.341786 203.927184,150.855016 C199.29433,154.073635 197.818538,160.262124 197.662749,165.902451 C197.379737,176.15089 200.344284,186.465358 206.025411,194.998721 C211.706778,203.532324 220.078082,210.244964 229.640965,213.935391 C233.964642,215.603887 242.535662,218.822986 245.603668,215.348894 C248.880272,211.639018 249.800361,208.413196 249.481102,201.432838 C249.259782,196.589662 249.84837,193.543199 253.86095,189.423702 C257.243654,185.951291 264.973079,183.305805 267.913141,179.451385 C273.699167,171.86596 273.241883,155.610793 267.913141,147.697383" id="Fill-32" fill="#513E34"></path>
                <path d="M337.070754,145.717926 L375.600017,134.388531 C380.22303,133.029051 383.769924,129.30597 384.904373,124.621504 L394.359956,85.581009 C395.494405,80.8965434 394.044298,75.9626077 390.555975,72.6373815 L361.482295,44.9262823 C357.993732,41.6012961 352.99673,40.3904422 348.373718,41.7499216 L309.844455,53.0793174 C305.221443,54.4387968 301.674549,58.1618785 300.5401,62.8463441 L291.084516,101.886839 C289.950067,106.571305 291.399935,111.50524 294.888498,114.830226 L323.962178,142.541566 C327.450741,145.866552 332.447742,147.077406 337.070754,145.717926" id="Fill-34" fill="#318E3B"></path>
                <path d="M326.072911,136.34148 L361.037517,135.674946 C365.23301,135.594991 369.066997,133.282291 371.095371,129.607951 L388.000488,98.9865282 C390.029102,95.3124281 389.943646,90.8349337 387.776766,87.2405488 L369.717277,57.2859002 C367.550397,53.6917554 363.630955,51.5267207 359.435701,51.606676 L324.470855,52.27345 C320.275602,52.3534053 316.441615,54.666105 314.413241,58.3402051 L297.507885,88.9616277 C295.479511,92.6357278 295.564966,97.1134622 297.731846,100.707607 L315.791335,130.662256 C317.958215,134.256641 321.877657,136.421435 326.072911,136.34148" id="Fill-36" fill="#75A82D"></path>
                <path d="M377.587296,87.8201884 C377.531846,89.7148638 377.477596,91.8712547 377.454311,94.348427 C377.23035,118.092497 380.398694,112.720368 359.729204,124.397437 C339.059473,136.074746 345.295343,136.133572 324.849813,124.067532 C304.403324,112.00005 307.471089,117.433406 307.695771,93.6878957 C307.919732,69.9440659 304.751148,75.3161947 325.420879,63.6391257 C346.090609,51.9620567 339.85498,51.9029906 360.300269,63.9690312 C376.85156,73.7372585 377.993931,72.0406704 377.709958,83.6339424 L377.587296,87.8201884 Z" id="Fill-38" fill="#B8CD15"></path>
                <path d="M336.115402,115.733025 L339.483943,127.194959 C339.592923,127.565442 339.841849,127.693659 340.230481,127.579368 L341.980884,127.064821 C342.370235,126.950291 342.509701,126.707784 342.400961,126.3373 L341.25667,122.444464 C341.196419,122.238933 341.280914,122.101833 341.509197,122.034603 L359.732396,116.67616 C360.121748,116.56163 360.261214,116.318883 360.152234,115.9484 L359.580208,114.001861 C359.477469,113.652027 359.231904,113.533895 358.842552,113.648425 L340.619353,119.006868 C340.39107,119.073858 340.242963,118.994863 340.176231,118.767963 L339.03218,114.875366 C338.9232,114.504403 338.674754,114.376186 338.285402,114.490717 L336.535,115.005264 C336.146368,115.119554 336.006422,115.362061 336.115402,115.733025" id="Fill-40" fill="#FEFEFE"></path>
                <path d="M345.305809,101.969099 C345.535051,101.90163 345.679317,101.9715 345.739809,102.176791 L347.488291,108.126374 C347.548782,108.332385 347.465247,108.469005 347.236004,108.536475 L345.039599,109.18212 C344.170639,109.437833 343.484113,109.449598 342.9805,109.216935 C342.477607,108.984513 342.110819,108.477169 341.880857,107.694424 L341.258182,105.57597 C341.02822,104.793225 341.062066,104.168229 341.359241,103.700263 C341.656896,103.232536 342.240443,102.870457 343.109644,102.614984 L345.305809,101.969099 Z M338.222823,106.031931 L339.090823,108.984753 C339.538745,110.508945 340.348655,111.551485 341.520071,112.113332 C342.691967,112.67518 344.124551,112.707114 345.817343,112.209375 L352.681168,110.191045 C354.351396,109.699788 355.532894,108.899275 356.225662,107.789266 C356.91915,106.679016 357.041092,105.362516 356.593169,103.838083 L354.508625,96.745596 C354.399645,96.3748725 354.162481,96.2432945 353.795934,96.350862 L352.080337,96.8555645 C351.668181,96.9765779 351.516954,97.2224463 351.625934,97.5934099 L353.583495,104.253227 C354.025416,105.75677 353.411143,106.753929 351.740675,107.245186 L350.265123,107.679057 C350.036841,107.746287 349.888733,107.667052 349.822001,107.440152 L347.26553,98.7411159 C347.15655,98.3703925 346.896102,98.2457775 346.484426,98.3667909 L342.125942,99.648476 C340.43291,100.146216 339.247092,100.953932 338.568486,102.070664 C337.890361,103.187637 337.7749,104.507979 338.222823,106.031931 L338.222823,106.031931 Z" id="Fill-42" fill="#FEFEFE"></path>
                <path d="M341.945405,65.5948841 C342.151363,65.5343774 342.287948,65.6179343 342.355401,65.8472354 L343.473527,69.6521932 C343.729174,70.5216165 343.740696,71.2083193 343.508093,71.7120615 C343.27597,72.2150833 342.645374,72.618221 341.86283,72.8482425 L340.807115,73.1586994 C340.024811,73.3887208 339.399976,73.3548659 338.931889,73.0576148 C338.464283,72.7598835 338.102537,72.1761861 337.846889,71.3067628 L336.728763,67.501805 C336.661311,67.2725038 336.731164,67.1282002 336.936402,67.0676935 L341.945405,65.5948841 Z M328.479642,67.6790031 C327.786395,68.7892527 327.664212,70.1057532 328.112375,71.6299453 L329.888702,77.6743706 C329.997682,78.0453341 330.234846,78.1769121 330.601394,78.0691046 L332.31723,77.5646422 C332.729146,77.4436288 332.880374,77.1977604 332.771394,76.8267968 L331.12205,71.2150423 C330.680128,69.7112592 331.294161,68.7143396 332.964629,68.223083 L334.27143,67.8386735 L335.524221,72.1017533 C336.021833,73.7949799 336.829342,74.981103 337.945788,75.6598823 C339.062474,76.3381814 340.382717,76.4536723 341.906278,76.0056347 L343.152828,75.6389931 C344.676869,75.1909555 345.719141,74.3808383 346.280844,73.2088815 C346.842308,72.0369247 346.874234,70.6037328 346.376622,68.9105061 L344.254631,61.6900423 C343.146586,62.0158659 341.173663,62.5868377 340.947061,62.6535871 L338.887961,63.258894 L333.955532,64.7093736 L332.024376,65.277224 C330.354148,65.7684806 329.17241,66.5689936 328.479642,67.6790031 L328.479642,67.6790031 Z" id="Fill-44" fill="#FEFEFE"></path>
                <path d="M333.846432,91.1408286 L334.182494,92.2842128 C334.394453,93.0052507 334.75836,93.6083967 335.273735,94.0946111 C335.78935,94.5808255 336.364256,94.842781 336.996053,94.8804776 L337.032299,95.003892 L335.728379,95.3873411 C335.339507,95.5016315 335.196441,95.734054 335.29918,96.0838882 L335.871205,98.0304266 C335.974424,98.3809811 336.22023,98.4983929 336.609101,98.3841025 L352.944593,93.5805444 C353.333945,93.4660139 353.476771,93.2343117 353.373792,92.8837571 L352.801766,90.9374589 C352.698787,90.5876247 352.453222,90.4692525 352.06387,90.583783 L341.184825,93.7827135 C339.103401,94.3949835 337.811003,93.8468218 337.30835,92.1367878 L336.76369,90.2829303 C336.729363,89.9129272 336.49508,89.7914336 336.06012,89.91941 L334.275631,90.4440413 C333.886759,90.5583317 333.743693,90.7909943 333.846432,91.1408286" id="Fill-46" fill="#FEFEFE"></path>
                <path d="M330.886494,81.0694196 L331.222556,82.2128038 C331.434515,82.9338417 331.798182,83.5369877 332.313797,84.0232021 C332.829412,84.5094165 333.404318,84.771372 334.036115,84.8090686 L334.072362,84.932483 L332.768441,85.3159321 C332.379569,85.4302225 332.236503,85.662645 332.339242,86.0127194 L332.911267,87.9590176 C333.014246,88.3095722 333.260292,88.4269839 333.649164,88.3126935 L349.984655,83.5091354 C350.374007,83.394845 350.516833,83.1629027 350.413854,82.8123481 L349.841829,80.8660499 C349.73885,80.5162157 349.493285,80.3978435 349.103933,80.512374 L338.224887,83.7113045 C336.143463,84.3235745 334.851065,83.7754128 334.348412,82.0653788 L333.803752,80.2115213 C333.769186,79.8415182 333.534902,79.7200246 333.100182,79.848001 L331.315453,80.3726324 C330.926822,80.4869227 330.783755,80.7195853 330.886494,81.0694196" id="Fill-48" fill="#FEFEFE"></path>
            </g>
        </g>
    </g>
</svg>