<?xml version="1.0" encoding="UTF-8"?>
<svg width="20px" height="20px" viewBox="0 0 20 20" version="1.1" xmlns="http://www.w3.org/2000/svg" xmlns:xlink="http://www.w3.org/1999/xlink">
    <title></title>
    <g id="Dashboard" stroke="none" stroke-width="1" fill="none" fill-rule="evenodd">
        <g id="DR---Dashboard-Recent-Snapshots" transform="translate(-419.000000, -156.000000)" fill="#4D72AA" fill-rule="nonzero" stroke="#4D72AA">
            <g id="Group" transform="translate(402.000000, 146.000000)">
                <g id="" transform="translate(18.000000, 11.250038)">
                    <path d="M17.8769105,16.4847401 L13.6089382,12.2167677 C13.5280859,12.1359154 13.4226174,12.0937212 13.3101108,12.0937212 L12.8460769,12.0937212 C13.9534961,10.8105211 14.6249651,9.14060321 14.6249651,7.31248257 C14.6249651,3.27302534 11.3519398,0 7.31248257,0 C3.27302534,0 0,3.27302534 0,7.31248257 C0,11.3519398 3.27302534,14.6249651 7.31248257,14.6249651 C9.14060321,14.6249651 10.8105211,13.9534961 12.0937212,12.8460769 L12.0937212,13.3101108 C12.0937212,13.4226174 12.1394173,13.5280859 12.2167677,13.6089382 L16.4847401,17.8769105 C16.6499466,18.0421514 16.917154,18.0421514 17.0823949,17.8769105 L17.8769105,17.0823949 C18.0421514,16.917154 18.0421514,16.6499466 17.8769105,16.4847401 Z M7.31248257,12.9374692 C4.20466374,12.9374692 1.68749598,10.4203014 1.68749598,7.31248257 C1.68749598,4.20466374 4.20466374,1.68749598 7.31248257,1.68749598 C10.4203014,1.68749598 12.9374692,4.20466374 12.9374692,7.31248257 C12.9374692,10.4203014 10.4203014,12.9374692 7.31248257,12.9374692 Z" id="Shape"></path>
                </g>
            </g>
        </g>
    </g>
</svg>